<?xml version="1.0" encoding="UTF-8"?><svg id="Capa_1" xmlns="http://www.w3.org/2000/svg" width="1200" height="400" xmlns:xlink="http://www.w3.org/1999/xlink" viewBox="0 0 1200 400"><defs><linearGradient id="Degradado_sin_nombre_206" x1="156.909" y1="202.403" x2="237.909" y2="202.403" gradientUnits="userSpaceOnUse"><stop offset="0" stop-color="#a855f7"/><stop offset=".15" stop-color="#8b5cf6"/><stop offset=".3" stop-color="#6d28d9"/><stop offset=".5" stop-color="#9333ea"/><stop offset="1" stop-color="#ff7a3d"/></linearGradient><linearGradient id="Degradado_sin_nombre_206-2" x1="103.274" y1="200" x2="291.544" y2="200" xlink:href="#Degradado_sin_nombre_206"/></defs><g id="Logo"><path d="M198.159,257.003c-8.1,0-15.251-1.45-21.45-4.35-6.202-2.899-11.051-7.05-14.55-12.45-3.501-5.399-5.25-11.899-5.25-19.5v-4.2h19.5v4.2c0,6.3,1.95,11.025,5.85,14.175,3.9,3.15,9.199,4.726,15.9,4.726,6.799,0,11.874-1.351,15.225-4.05,3.349-2.7,5.025-6.15,5.025-10.351,0-2.899-.825-5.25-2.475-7.05s-4.05-3.274-7.2-4.425c-3.15-1.148-6.975-2.225-11.475-3.226l-3.45-.75c-7.2-1.598-13.376-3.623-18.525-6.074-5.152-2.449-9.101-5.675-11.85-9.676-2.751-3.998-4.125-9.199-4.125-15.6s1.523-11.873,4.575-16.425c3.049-4.55,7.35-8.049,12.9-10.5,5.55-2.449,12.075-3.675,19.575-3.675s14.175,1.274,20.025,3.824c5.85,2.551,10.448,6.352,13.8,11.4,3.349,5.051,5.025,11.377,5.025,18.975v4.5h-19.5v-4.5c0-3.998-.776-7.223-2.325-9.675-1.552-2.449-3.776-4.249-6.675-5.399-2.901-1.148-6.352-1.726-10.35-1.726-6,0-10.425,1.125-13.275,3.375s-4.275,5.325-4.275,9.226c0,2.602.675,4.8,2.025,6.6s3.375,3.3,6.075,4.5c2.7,1.2,6.15,2.25,10.35,3.15l3.45.75c7.5,1.601,14.025,3.651,19.575,6.149,5.55,2.501,9.874,5.801,12.975,9.9,3.098,4.102,4.65,9.352,4.65,15.75s-1.626,12.025-4.875,16.875c-3.251,4.852-7.852,8.65-13.8,11.399-5.951,2.75-12.975,4.125-21.075,4.125Z" fill="url(#Degradado_sin_nombre_206)"/><path d="M291.544,145.651l-94.135-54.349-94.135,54.349v108.698s94.135,54.349,94.135,54.349l94.135-54.349v-108.698ZM270.029,204.54l1,40.118-72.4,42.571-72.601-40.969-1.178-11.705,9.99-3.048s-29.132-25.653-29.198-28.443,18.818.424,18.818.424l1.315-43.807,73.405-40.905,70.341,41.489v24.655s19.658,14.495,19.658,18.081-19.149,1.541-19.149,1.541Z" fill="url(#Degradado_sin_nombre_206-2)"/></g><rect x="372.423" y="138.402" width="724.303" height="74.562" fill="none"/><path d="M387.383,200c-1.974,0-3.773-.48-5.4-1.44s-2.92-2.266-3.88-3.92c-.96-1.653-1.439-3.466-1.439-5.44v-3.84h9.6v3.52c0,.374.146.708.44,1,.292.294.626.44,1,.44h35.359c.427,0,.786-.146,1.08-.44.293-.292.44-.626.44-1v-11.44c0-.426-.147-.772-.44-1.04-.294-.266-.653-.4-1.08-.4h-35.68c-1.974,0-3.773-.48-5.4-1.44s-2.92-2.252-3.88-3.88c-.96-1.626-1.439-3.426-1.439-5.4v-12.08c0-1.973.479-3.787,1.439-5.44.96-1.652,2.253-2.96,3.88-3.92s3.427-1.44,5.4-1.44h36.08c1.973,0,3.772.48,5.4,1.44,1.626.96,2.932,2.268,3.92,3.92.986,1.654,1.479,3.468,1.479,5.44v3.84h-9.68v-3.52c0-.373-.147-.706-.44-1-.294-.292-.653-.44-1.08-.44h-35.359c-.374,0-.708.147-1,.44-.294.294-.44.627-.44,1v11.44c0,.428.146.774.44,1.04.292.268.626.4,1,.4h35.76c1.973,0,3.772.48,5.4,1.44,1.626.96,2.932,2.254,3.92,3.88.986,1.627,1.479,3.427,1.479,5.4v12.08c0,1.974-.493,3.787-1.479,5.44-.988,1.654-2.294,2.96-3.92,3.92-1.628.96-3.428,1.44-5.4,1.44h-36.08Z" fill="#fff"/><path d="M443.063,200v-57.6h52.88v9.68h-43.199v14.32h34.8v9.6h-34.8v14.32h43.199v9.68h-52.88Z" fill="#fff"/><path d="M514.983,200c-1.974,0-3.788-.48-5.44-1.44-1.653-.96-2.96-2.266-3.92-3.92-.96-1.653-1.439-3.466-1.439-5.44v-36c0-1.973.479-3.787,1.439-5.44.96-1.652,2.267-2.96,3.92-3.92,1.652-.96,3.467-1.44,5.44-1.44h46.64v9.68h-44.96c-.854,0-1.548.254-2.08.76-.533.508-.8,1.188-.8,2.04v32.64c0,.854.267,1.534.8,2.04.532.507,1.227.76,2.08.76h44.96v9.68h-46.64Z" fill="#fff"/><path d="M575.141,198.561c-1.653-.96-2.96-2.266-3.92-3.92-.96-1.653-1.439-3.466-1.439-5.44v-46.8h9.6v46.48c0,.374.146.708.44,1,.292.294.626.44,1,.44h35.439c.373,0,.706-.146,1-.44.293-.292.44-.626.44-1v-46.48h9.68v46.8c0,1.974-.494,3.787-1.479,5.44-.988,1.654-2.294,2.96-3.921,3.92s-3.427,1.44-5.399,1.44h-36c-1.974,0-3.788-.48-5.44-1.44Z" fill="#fff"/><path d="M636.181,200v-57.52h46.8c1.973,0,3.772.494,5.399,1.48,1.627.987,2.933,2.294,3.92,3.92.986,1.627,1.48,3.428,1.48,5.4v15.84c0,1.92-.494,3.708-1.48,5.36-.987,1.654-2.293,2.96-3.92,3.92s-3.427,1.44-5.399,1.44l-37.2.08v20.08h-9.6ZM647.22,170.161h35.44c.372,0,.706-.133,1-.4.293-.266.44-.612.44-1.04v-15.2c0-.373-.147-.706-.44-1-.294-.292-.628-.44-1-.44h-35.44c-.373,0-.707.147-1,.44-.293.294-.439.627-.439,1v15.2c0,.427.146.773.439,1.04.293.268.627.4,1,.4ZM682.74,200l-17.68-21.12h12.56l15.92,18.88v2.24h-10.8Z" fill="#fff"/><path d="M702.34,200v-57.6h52.88v9.68h-43.199v14.32h34.8v9.6h-34.8v14.32h43.199v9.68h-52.88Z" fill="#fff"/><path d="M763.699,142.4h44.48c1.973,0,3.772.48,5.399,1.44s2.933,2.268,3.92,3.92c.986,1.654,1.48,3.468,1.48,5.44v11.44c0,.748-.067,1.454-.2,2.12-.134.668-.334,1.294-.6,1.88.96,1.333,1.72,2.654,2.28,3.96.56,1.308.84,2.627.84,3.96v12.64c0,1.974-.494,3.787-1.48,5.44-.987,1.654-2.294,2.96-3.92,3.92-1.627.96-3.428,1.44-5.4,1.44h-46.8v-57.6ZM774.739,165.84h33.04c.427,0,.772-.146,1.04-.44.267-.292.4-.626.4-1v-10.88c0-.373-.134-.706-.4-1-.268-.292-.613-.44-1.04-.44h-33.04c-.373,0-.707.147-1,.44-.294.294-.439.627-.439,1v10.88c0,.374.146.708.439,1,.293.294.627.44,1,.44ZM774.739,190.32h35.44c.372,0,.706-.146,1-.44.292-.292.439-.626.439-1v-11.92c0-.373-.147-.706-.439-1-.294-.292-.628-.44-1-.44h-35.44c-.373,0-.707.147-1,.44-.294.294-.439.627-.439,1v11.92c0,.374.146.708.439,1,.293.294.627.44,1,.44Z" fill="#9853cb"/><path d="M840.658,200c-1.974,0-3.788-.48-5.44-1.44-1.653-.96-2.96-2.266-3.92-3.92-.96-1.653-1.439-3.466-1.439-5.44v-36c0-1.973.479-3.787,1.439-5.44.96-1.652,2.267-2.96,3.92-3.92,1.652-.96,3.467-1.44,5.44-1.44h36c1.973,0,3.772.48,5.399,1.44s2.933,2.268,3.921,3.92c.985,1.654,1.479,3.468,1.479,5.44v36c0,1.974-.494,3.787-1.479,5.44-.988,1.654-2.294,2.96-3.921,3.92s-3.427,1.44-5.399,1.44h-36ZM840.898,190.32h35.439c.373,0,.706-.146,1-.44.293-.292.44-.626.44-1v-35.36c0-.373-.147-.706-.44-1-.294-.292-.627-.44-1-.44h-35.439c-.374,0-.708.147-1,.44-.294.294-.44.627-.44,1v35.36c0,.374.146.708.44,1,.292.294.626.44,1,.44Z" fill="#9853cb"/><path d="M896.417,153.201c0-1.973.48-3.787,1.44-5.44.96-1.652,2.267-2.96,3.92-3.92,1.652-.96,3.466-1.44,5.44-1.44h36c1.972,0,3.772.48,5.399,1.44,1.626.96,2.933,2.268,3.92,3.92.986,1.654,1.48,3.468,1.48,5.44v46.8h-9.681v-19.76h-38.319v19.76h-9.601v-46.8ZM944.337,170.641v-17.12c0-.373-.147-.706-.439-1-.294-.292-.628-.44-1-.44h-35.44c-.373,0-.707.147-1,.44-.293.294-.439.627-.439,1v17.12h38.319Z" fill="#9853cb"/><path d="M963.138,200v-57.52h46.8c1.973,0,3.772.494,5.399,1.48,1.627.987,2.933,2.294,3.92,3.92.986,1.627,1.48,3.428,1.48,5.4v15.84c0,1.92-.494,3.708-1.48,5.36-.987,1.654-2.293,2.96-3.92,3.92s-3.427,1.44-5.399,1.44l-37.2.08v20.08h-9.6ZM974.177,170.161h35.44c.372,0,.706-.133,1-.4.293-.266.44-.612.44-1.04v-15.2c0-.373-.147-.706-.44-1-.294-.292-.628-.44-1-.44h-35.44c-.373,0-.707.147-1,.44-.293.294-.439.627-.439,1v15.2c0,.427.146.773.439,1.04.293.268.627.4,1,.4ZM1009.697,200l-17.68-21.12h12.56l15.92,18.88v2.24h-10.8Z" fill="#9853cb"/><path d="M1029.297,200v-57.6h46.801c1.972,0,3.772.48,5.399,1.44,1.626.96,2.933,2.268,3.92,3.92.986,1.654,1.48,3.468,1.48,5.44v36c0,1.974-.494,3.787-1.48,5.44-.987,1.654-2.294,2.96-3.92,3.92-1.627.96-3.428,1.44-5.399,1.44h-46.801ZM1040.337,190.32h35.44c.372,0,.706-.146,1-.44.292-.292.439-.626.439-1v-35.36c0-.373-.147-.706-.439-1-.294-.292-.628-.44-1-.44h-35.44c-.427,0-.787.147-1.08.44-.293.294-.439.627-.439,1v35.36c0,.374.146.708.439,1,.293.294.653.44,1.08.44Z" fill="#9853cb"/><rect x="376.662" y="225.085" width="710.235" height="41.17" fill="none"/><path d="M382.272,248.185c-.74,0-1.415-.18-2.025-.54-.61-.36-1.095-.85-1.455-1.47-.36-.62-.54-1.3-.54-2.04v-1.44h3.6v1.32c0,.14.055.266.165.375.11.11.235.165.375.165h13.26c.16,0,.294-.055.405-.165.11-.109.165-.235.165-.375v-4.29c0-.16-.055-.29-.165-.39-.11-.101-.245-.15-.405-.15h-13.38c-.74,0-1.415-.18-2.025-.54-.61-.36-1.095-.845-1.455-1.455-.36-.609-.54-1.285-.54-2.024v-4.53c0-.74.18-1.42.54-2.04.36-.62.845-1.11,1.455-1.47.61-.36,1.285-.54,2.025-.54h13.53c.74,0,1.415.18,2.025.54.61.359,1.1.85,1.47,1.47s.555,1.3.555,2.04v1.439h-3.63v-1.319c0-.14-.055-.266-.165-.375-.11-.11-.245-.165-.405-.165h-13.26c-.14,0-.265.055-.375.165-.11.109-.165.235-.165.375v4.29c0,.16.055.29.165.39.11.101.235.15.375.15h13.41c.74,0,1.415.18,2.025.54.61.359,1.1.845,1.47,1.454.37.61.555,1.286.555,2.025v4.53c0,.74-.185,1.42-.555,2.04s-.86,1.109-1.47,1.47c-.61.36-1.285.54-2.025.54h-13.53Z" fill="#fff"/><path d="M409.062,248.185v-21.6h19.83v3.63h-16.2v5.37h13.05v3.6h-13.05v5.37h16.2v3.63h-19.83Z" fill="#fff"/><path d="M441.942,248.185c-.74,0-1.42-.18-2.04-.54-.62-.36-1.11-.85-1.47-1.47-.36-.62-.54-1.3-.54-2.04v-13.5c0-.74.18-1.42.54-2.04.36-.62.85-1.11,1.47-1.47.62-.36,1.3-.54,2.04-.54h17.49v3.63h-16.86c-.32,0-.58.095-.78.285-.2.189-.3.445-.3.765v12.24c0,.32.1.575.3.765.2.19.46.285.78.285h16.86v3.63h-17.49Z" fill="#fff"/><path d="M470.412,247.645c-.62-.36-1.11-.85-1.47-1.47-.36-.62-.54-1.3-.54-2.04v-17.55h3.6v17.43c0,.14.055.266.165.375.11.11.235.165.375.165h13.29c.14,0,.265-.055.375-.165.11-.109.165-.235.165-.375v-17.43h3.63v17.55c0,.74-.186,1.42-.555,2.04-.37.62-.86,1.109-1.47,1.47-.61.36-1.285.54-2.025.54h-13.5c-.74,0-1.42-.18-2.04-.54Z" fill="#fff"/><path d="M499.212,248.185v-21.57h17.55c.74,0,1.415.186,2.025.556.61.37,1.1.859,1.47,1.47.37.61.555,1.285.555,2.025v5.939c0,.72-.185,1.391-.555,2.01-.371.62-.86,1.11-1.47,1.471-.61.359-1.285.54-2.025.54l-13.95.029v7.53h-3.6ZM503.352,236.994h13.29c.14,0,.265-.049.375-.149.11-.1.165-.229.165-.391v-5.699c0-.14-.055-.266-.165-.375-.11-.11-.235-.165-.375-.165h-13.29c-.14,0-.265.055-.375.165-.11.109-.165.235-.165.375v5.699c0,.161.055.291.165.391.11.101.235.149.375.149ZM516.672,248.185l-6.63-7.92h4.71l5.97,7.08v.84h-4.05Z" fill="#fff"/><path d="M529.631,248.185v-21.6h3.57v21.6h-3.57Z" fill="#fff"/><path d="M550.451,248.185v-17.97h-9v-3.63h21.601v3.63h-9v17.97h-3.601Z" fill="#fff"/><path d="M579.79,248.185v-8.1l-9.96-13.5h4.26l7.53,9.479,7.47-9.479h4.32l-9.99,13.529v8.07h-3.63Z" fill="#fff"/><path d="M620.14,248.185c-.74,0-1.42-.18-2.04-.54s-1.11-.85-1.47-1.47c-.36-.62-.54-1.3-.54-2.04v-13.5c0-.74.18-1.42.54-2.04.359-.62.85-1.11,1.47-1.47.62-.36,1.3-.54,2.04-.54h13.5c.74,0,1.415.18,2.025.54.609.359,1.1.85,1.47,1.47s.555,1.3.555,2.04v13.5c0,.74-.185,1.42-.555,2.04s-.86,1.109-1.47,1.47c-.61.36-1.285.54-2.025.54h-13.5ZM620.229,244.555h13.29c.14,0,.265-.055.375-.165.11-.109.165-.235.165-.375v-13.26c0-.14-.055-.266-.165-.375-.11-.11-.235-.165-.375-.165h-13.29c-.14,0-.265.055-.375.165-.11.109-.165.235-.165.375v13.26c0,.14.055.266.165.375.11.11.235.165.375.165Z" fill="#fff"/><path d="M646.898,248.185v-21.57h17.551c.739,0,1.414.186,2.024.556s1.1.859,1.47,1.47.556,1.285.556,2.025v5.939c0,.72-.186,1.391-.556,2.01-.37.62-.859,1.11-1.47,1.471-.61.359-1.285.54-2.024.54l-13.95.029v7.53h-3.601ZM651.039,236.994h13.29c.14,0,.265-.049.375-.149.109-.1.165-.229.165-.391v-5.699c0-.14-.056-.266-.165-.375-.11-.11-.235-.165-.375-.165h-13.29c-.141,0-.266.055-.375.165-.11.109-.165.235-.165.375v5.699c0,.161.055.291.165.391.109.101.234.149.375.149Z" fill="#fff"/><path d="M676.598,248.185v-21.6h19.83v3.63h-16.2v5.37h13.05v3.6h-13.05v5.37h16.2v3.63h-19.83Z" fill="#fff"/><path d="M705.428,248.185v-21.57h17.551c.739,0,1.414.186,2.024.556s1.1.859,1.47,1.47.556,1.285.556,2.025v5.939c0,.72-.186,1.391-.556,2.01-.37.62-.859,1.11-1.47,1.471-.61.359-1.285.54-2.024.54l-13.95.029v7.53h-3.601ZM709.568,236.994h13.29c.14,0,.265-.049.375-.149.109-.1.165-.229.165-.391v-5.699c0-.14-.056-.266-.165-.375-.11-.11-.235-.165-.375-.165h-13.29c-.141,0-.266.055-.375.165-.11.109-.165.235-.165.375v5.699c0,.161.055.291.165.391.109.101.234.149.375.149ZM722.888,248.185l-6.63-7.92h4.71l5.971,7.08v.84h-4.051Z" fill="#fff"/><path d="M736.148,230.635c0-.74.18-1.42.54-2.04.359-.62.85-1.11,1.47-1.47.62-.36,1.3-.54,2.04-.54h13.5c.739,0,1.415.18,2.025.54.609.359,1.1.85,1.47,1.47s.555,1.3.555,2.04v17.55h-3.63v-7.41h-14.37v7.41h-3.6v-17.55ZM754.118,237.175v-6.42c0-.14-.056-.266-.165-.375-.11-.11-.235-.165-.375-.165h-13.29c-.14,0-.266.055-.375.165-.11.109-.165.235-.165.375v6.42h14.37Z" fill="#fff"/><path d="M774.998,248.185v-17.97h-9v-3.63h21.601v3.63h-9v17.97h-3.601Z" fill="#fff"/><path d="M795.519,248.185v-21.6h3.569v21.6h-3.569Z" fill="#fff"/><path d="M812.077,248.185c-.74,0-1.42-.18-2.04-.54s-1.11-.85-1.47-1.47c-.36-.62-.54-1.3-.54-2.04v-13.5c0-.74.18-1.42.54-2.04.359-.62.85-1.11,1.47-1.47.62-.36,1.3-.54,2.04-.54h13.5c.74,0,1.415.18,2.025.54.609.359,1.1.85,1.47,1.47s.555,1.3.555,2.04v13.5c0,.74-.185,1.42-.555,2.04s-.86,1.109-1.47,1.47c-.61.36-1.285.54-2.025.54h-13.5ZM812.167,244.555h13.29c.14,0,.265-.055.375-.165.11-.109.165-.235.165-.375v-13.26c0-.14-.055-.266-.165-.375-.11-.11-.235-.165-.375-.165h-13.29c-.14,0-.265.055-.375.165-.11.109-.165.235-.165.375v13.26c0,.14.055.266.165.375.11.11.235.165.375.165Z" fill="#fff"/><path d="M838.837,248.185v-21.6h4.11l13.86,16.5v-16.5h3.63v21.6h-4.11l-13.89-16.53v16.53h-3.601Z" fill="#fff"/><path d="M873.637,248.185c-.74,0-1.415-.18-2.025-.54s-1.095-.85-1.455-1.47-.54-1.3-.54-2.04v-1.44h3.601v1.32c0,.14.055.266.165.375.109.11.234.165.375.165h13.26c.159,0,.295-.055.404-.165.11-.109.165-.235.165-.375v-4.29c0-.16-.055-.29-.165-.39-.109-.101-.245-.15-.404-.15h-13.38c-.74,0-1.415-.18-2.025-.54s-1.095-.845-1.455-1.455c-.36-.609-.54-1.285-.54-2.024v-4.53c0-.74.18-1.42.54-2.04s.845-1.11,1.455-1.47c.61-.36,1.285-.54,2.025-.54h13.529c.74,0,1.415.18,2.025.54.609.359,1.1.85,1.47,1.47s.556,1.3.556,2.04v1.439h-3.631v-1.319c0-.14-.055-.266-.165-.375-.109-.11-.245-.165-.404-.165h-13.26c-.141,0-.266.055-.375.165-.11.109-.165.235-.165.375v4.29c0,.16.055.29.165.39.109.101.234.15.375.15h13.409c.74,0,1.415.18,2.025.54.609.359,1.1.845,1.47,1.454.37.61.556,1.286.556,2.025v4.53c0,.74-.186,1.42-.556,2.04s-.86,1.109-1.47,1.47c-.61.36-1.285.54-2.025.54h-13.529Z" fill="#fff"/><path d="M919.267,248.185c-.74,0-1.421-.18-2.04-.54-.62-.36-1.11-.85-1.471-1.47-.359-.62-.54-1.3-.54-2.04v-13.5c0-.74.181-1.42.54-2.04.36-.62.851-1.11,1.471-1.47.619-.36,1.3-.54,2.04-.54h17.489v3.63h-16.859c-.32,0-.581.095-.78.285-.2.189-.3.445-.3.765v12.24c0,.32.1.575.3.765.199.19.46.285.78.285h16.859v3.63h-17.489Z" fill="#fff"/><path d="M945.847,248.185v-21.6h19.83v3.63h-16.2v5.37h13.05v3.6h-13.05v5.37h16.2v3.63h-19.83Z" fill="#fff"/><path d="M974.677,248.185v-21.6h4.11l13.86,16.5v-16.5h3.63v21.6h-4.11l-13.89-16.53v16.53h-3.601Z" fill="#fff"/><path d="M1013.465,248.185v-17.97h-9v-3.63h21.601v3.63h-9v17.97h-3.601Z" fill="#fff"/><path d="M1034.285,248.185v-21.6h19.83v3.63h-16.2v5.37h13.05v3.6h-13.05v5.37h16.2v3.63h-19.83Z" fill="#fff"/><path d="M1063.115,248.185v-21.57h17.551c.739,0,1.414.186,2.024.556s1.1.859,1.47,1.47.556,1.285.556,2.025v5.939c0,.72-.186,1.391-.556,2.01-.37.62-.859,1.11-1.47,1.471-.61.359-1.285.54-2.024.54l-13.95.029v7.53h-3.601ZM1067.256,236.994h13.29c.14,0,.265-.049.375-.149.109-.1.165-.229.165-.391v-5.699c0-.14-.056-.266-.165-.375-.11-.11-.235-.165-.375-.165h-13.29c-.141,0-.266.055-.375.165-.11.109-.165.235-.165.375v5.699c0,.161.055.291.165.391.109.101.234.149.375.149ZM1080.575,248.185l-6.63-7.92h4.71l5.971,7.08v.84h-4.051Z" fill="#fff"/><line id="Línea_Vértical" x1="338.567" y1="142.401" x2="338.567" y2="277.489" fill="#9853cd"/><line id="Línea_Drcha" x1="978.639" y1="293.968" x2="1065.188" y2="294.734" fill="#9853cd"/><line id="Línea_Izq" x1="389.224" y1="294.734" x2="491.841" y2="293.919" fill="#9853cd"/><circle id="Elipse_Izq" cx="507.601" cy="294.642" r="4.723" fill="#9853cd"/><circle id="Elipse_Drch" cx="959.792" cy="294.734" r="4.723" fill="#9853cd"/><rect x="533.12" y="286.17" width="397.277" height="16.851" fill="none"/><path d="M533.401,299.266l4.711-13.096h2.399l4.729,13.096h-2.136l-2.54-7.339c-.199-.615-.417-1.307-.655-2.074-.236-.768-.52-1.708-.848-2.821h.492c-.322,1.113-.602,2.059-.84,2.834-.236.777-.455,1.464-.654,2.062l-2.54,7.339h-2.118ZM535.985,295.847v-1.67h6.671v1.67h-6.671Z" fill="#fcfcfc"/><path d="M551.151,299.266v-13.096h2.224l4.975,7.866c.135.217.3.492.496.826s.403.702.62,1.103c.217.402.431.816.642,1.244l-.229.246c-.029-.41-.055-.85-.074-1.318-.021-.469-.035-.911-.045-1.327-.008-.416-.013-.747-.013-.993v-7.646h1.986v13.096h-2.241l-4.447-7.031c-.182-.287-.386-.621-.611-1.002s-.48-.822-.764-1.322c-.285-.502-.608-1.074-.972-1.719l.299-.211c.035.656.062,1.26.083,1.811s.035,1.033.045,1.445c.008.414.013.743.013.989v7.04h-1.986Z" fill="#fcfcfc"/><path d="M567.643,299.266l4.711-13.096h2.399l4.729,13.096h-2.136l-2.54-7.339c-.199-.615-.417-1.307-.655-2.074-.236-.768-.52-1.708-.848-2.821h.492c-.322,1.113-.602,2.059-.84,2.834-.236.777-.455,1.464-.654,2.062l-2.54,7.339h-2.118ZM570.227,295.847v-1.67h6.671v1.67h-6.671Z" fill="#fcfcfc"/><path d="M585.393,299.266v-13.096h1.978v11.382h6.073v1.714h-8.051Z" fill="#fcfcfc"/><path d="M601.641,286.17v13.096h-1.978v-13.096h1.978Z" fill="#fcfcfc"/><path d="M608.034,299.266v-1.468l6.126-8.271c.293-.393.599-.785.918-1.178s.644-.782.972-1.169l.22.668c-.533.018-1.066.028-1.6.03-.533.004-1.063.005-1.591.005h-4.931v-1.714h9.65v1.477l-6.021,8.121c-.311.416-.633.832-.967,1.248s-.674.829-1.02,1.239l-.22-.668c.533-.018,1.063-.027,1.591-.03s1.055-.005,1.582-.005h5.115v1.714h-9.826Z" fill="#fcfcfc"/><path d="M623.2,299.266l4.711-13.096h2.399l4.729,13.096h-2.136l-2.54-7.339c-.199-.615-.417-1.307-.655-2.074-.236-.768-.52-1.708-.848-2.821h.492c-.322,1.113-.602,2.059-.84,2.834-.236.777-.455,1.464-.654,2.062l-2.54,7.339h-2.118ZM625.784,295.847v-1.67h6.671v1.67h-6.671Z" fill="#fcfcfc"/><path d="M650.824,299.406c-.352,0-.65-.122-.896-.365-.246-.242-.369-.54-.369-.892s.123-.648.369-.892.545-.365.896-.365.648.122.893.365c.242.243.364.54.364.892s-.122.649-.364.892c-.244.243-.541.365-.893.365Z" fill="#fcfcfc"/><path d="M667.454,299.266v-13.096h4.772c.973,0,1.797.176,2.475.527.676.352,1.191.838,1.547,1.459.354.621.531,1.345.531,2.171,0,.82-.18,1.544-.541,2.171-.359.627-.882,1.116-1.564,1.468s-1.51.527-2.482.527h-3.516v-1.696h3.41c.604,0,1.105-.104,1.508-.312.4-.207.704-.497.909-.869s.308-.802.308-1.288c0-.492-.103-.921-.308-1.288-.205-.365-.51-.651-.914-.856s-.908-.308-1.512-.308h-2.646v11.391h-1.978Z" fill="#fcfcfc"/><path d="M683.094,299.266v-13.096h4.852c.973,0,1.798.17,2.474.51.678.34,1.192.817,1.547,1.433s.532,1.333.532,2.153-.184,1.535-.55,2.145-.895,1.08-1.586,1.41c-.691.332-1.523.497-2.496.497h-3.639v-1.688h3.586c.598,0,1.097-.095,1.498-.286.401-.189.705-.462.91-.816s.308-.775.308-1.262c0-.492-.104-.917-.312-1.274-.209-.357-.514-.634-.914-.831-.402-.195-.904-.294-1.508-.294h-2.725v11.399h-1.978ZM690.6,299.266l-3.138-5.906h2.18l3.19,5.906h-2.232Z" fill="#fcfcfc"/><path d="M704.474,299.459c-1.148,0-2.173-.277-3.071-.83-.9-.555-1.609-1.336-2.127-2.348-.52-1.01-.778-2.195-.778-3.555,0-1.371.259-2.562.778-3.572.518-1.012,1.227-1.793,2.127-2.348.898-.553,1.923-.83,3.071-.83s2.172.277,3.071.83c.899.555,1.607,1.336,2.123,2.348.516,1.01.773,2.201.773,3.572,0,1.359-.258,2.545-.773,3.555-.516,1.012-1.224,1.793-2.123,2.348-.899.553-1.923.83-3.071.83ZM704.474,297.657c.75,0,1.427-.188,2.03-.567.604-.377,1.082-.934,1.438-1.67.354-.734.531-1.633.531-2.693,0-1.066-.178-1.969-.531-2.707-.355-.738-.834-1.297-1.438-1.674-.604-.379-1.28-.567-2.03-.567s-1.427.19-2.03.571-1.083.939-1.438,1.674c-.354.736-.531,1.637-.531,2.703,0,1.061.177,1.957.531,2.689s.834,1.289,1.438,1.67,1.28.571,2.03.571Z" fill="#fcfcfc"/><path d="M715.518,287.884v-1.714h10.23v1.714h-4.122v11.382h-1.978v-11.382h-4.131Z" fill="#fcfcfc"/><path d="M731.967,299.266v-13.096h8.552v1.714h-6.574v3.885h6.1v1.696h-6.1v4.087h6.601v1.714h-8.578Z" fill="#fcfcfc"/><path d="M752.546,299.459c-1.184,0-2.229-.279-3.133-.84-.906-.559-1.613-1.344-2.123-2.355-.51-1.01-.765-2.189-.765-3.537,0-1.371.258-2.562.773-3.572.516-1.012,1.223-1.793,2.122-2.348.899-.553,1.927-.83,3.081-.83.709,0,1.374.107,1.995.32.621.215,1.175.518,1.661.91s.889.858,1.208,1.397.532,1.137.638,1.793h-2.013c-.105-.398-.263-.759-.471-1.081s-.461-.598-.76-.826-.636-.404-1.011-.527-.785-.185-1.23-.185c-.785,0-1.481.199-2.087.598-.607.398-1.08.967-1.42,1.705s-.51,1.62-.51,2.646c0,1.014.172,1.89.514,2.628.344.738.819,1.307,1.429,1.705s1.315.598,2.118.598c.697,0,1.315-.146,1.854-.435.539-.291.964-.699,1.274-1.227s.466-1.146.466-1.854l.536.062h-3.762v-1.635h5.168v1.503c0,1.066-.242,2.004-.725,2.812-.484.809-1.143,1.44-1.979,1.894-.834.455-1.785.682-2.852.682Z" fill="#fcfcfc"/><path d="M764.627,299.266v-13.096h8.552v1.714h-6.574v3.885h6.1v1.696h-6.1v4.087h6.601v1.714h-8.578Z" fill="#fcfcfc"/><path d="M789.535,299.406c-.352,0-.65-.122-.896-.365-.246-.242-.369-.54-.369-.892s.123-.648.369-.892.545-.365.896-.365.648.122.893.365c.242.243.364.54.364.892s-.122.649-.364.892c-.244.243-.541.365-.893.365Z" fill="#fcfcfc"/><path d="M806.165,299.266v-13.096h4.852c.973,0,1.798.17,2.474.51.678.34,1.192.817,1.547,1.433s.532,1.333.532,2.153-.184,1.535-.55,2.145-.895,1.08-1.586,1.41c-.691.332-1.523.497-2.496.497h-3.639v-1.688h3.586c.598,0,1.097-.095,1.498-.286.401-.189.705-.462.91-.816s.308-.775.308-1.262c0-.492-.104-.917-.312-1.274-.209-.357-.514-.634-.914-.831-.402-.195-.904-.294-1.508-.294h-2.725v11.399h-1.978ZM813.671,299.266l-3.138-5.906h2.18l3.19,5.906h-2.232Z" fill="#fcfcfc"/><path d="M822.051,299.266v-13.096h8.552v1.714h-6.574v3.885h6.1v1.696h-6.1v4.087h6.601v1.714h-8.578Z" fill="#fcfcfc"/><path d="M841.559,299.477c-1.02,0-1.898-.169-2.637-.506-.738-.336-1.312-.816-1.723-1.441-.41-.623-.624-1.369-.642-2.236h1.978c.018.527.155.976.413,1.345s.61.647,1.06.835c.447.188.965.281,1.551.281.574,0,1.079-.086,1.516-.26.437-.172.778-.417,1.024-.733s.369-.686.369-1.107c0-.357-.096-.659-.286-.905s-.47-.457-.839-.633-.826-.331-1.371-.466l-1.485-.369c-1.207-.305-2.112-.739-2.716-1.306-.604-.564-.905-1.299-.905-2.201,0-.762.197-1.428.594-2,.395-.57.942-1.013,1.643-1.326s1.505-.471,2.413-.471c.926,0,1.731.162,2.417.488.686.324,1.223.779,1.613,1.361.389.584.593,1.268.61,2.053h-1.916c-.053-.686-.328-1.22-.826-1.604s-1.143-.576-1.934-.576c-.521,0-.981.084-1.38.25-.398.168-.709.4-.932.699s-.334.639-.334,1.02c0,.363.103.667.308.91s.49.446.856.61.793.305,1.279.422l1.345.343c.551.129,1.058.296,1.521.501s.865.452,1.209.743c.342.289.608.633.799,1.027.19.396.286.854.286,1.376,0,.768-.198,1.443-.593,2.026-.396.583-.959,1.037-1.688,1.361-.73.326-1.596.488-2.598.488Z" fill="#fcfcfc"/><path d="M852.84,299.266v-13.096h4.772c.973,0,1.797.176,2.475.527.676.352,1.191.838,1.547,1.459.354.621.531,1.345.531,2.171,0,.82-.18,1.544-.541,2.171-.359.627-.882,1.116-1.564,1.468s-1.51.527-2.482.527h-3.516v-1.696h3.41c.604,0,1.105-.104,1.508-.312.4-.207.704-.497.909-.869s.308-.802.308-1.288c0-.492-.103-.921-.308-1.288-.205-.365-.51-.651-.914-.856s-.908-.308-1.512-.308h-2.646v11.391h-1.978Z" fill="#fcfcfc"/><path d="M873.981,299.459c-1.148,0-2.173-.277-3.071-.83-.9-.555-1.609-1.336-2.127-2.348-.52-1.01-.778-2.195-.778-3.555,0-1.371.259-2.562.778-3.572.518-1.012,1.227-1.793,2.127-2.348.898-.553,1.923-.83,3.071-.83s2.172.277,3.071.83c.899.555,1.607,1.336,2.123,2.348.516,1.01.773,2.201.773,3.572,0,1.359-.258,2.545-.773,3.555-.516,1.012-1.224,1.793-2.123,2.348-.899.553-1.923.83-3.071.83ZM873.981,297.657c.75,0,1.427-.188,2.03-.567.604-.377,1.082-.934,1.438-1.67.354-.734.531-1.633.531-2.693,0-1.066-.178-1.969-.531-2.707-.355-.738-.834-1.297-1.438-1.674-.604-.379-1.28-.567-2.03-.567s-1.427.19-2.03.571-1.083.939-1.438,1.674c-.354.736-.531,1.637-.531,2.703,0,1.061.177,1.957.531,2.689s.834,1.289,1.438,1.67,1.28.571,2.03.571Z" fill="#fcfcfc"/><path d="M886.414,299.266v-13.096h2.224l4.975,7.866c.135.217.3.492.496.826s.403.702.62,1.103c.217.402.431.816.642,1.244l-.229.246c-.029-.41-.055-.85-.074-1.318-.021-.469-.035-.911-.045-1.327-.008-.416-.013-.747-.013-.993v-7.646h1.986v13.096h-2.241l-4.447-7.031c-.182-.287-.386-.621-.611-1.002s-.48-.822-.764-1.322c-.285-.502-.608-1.074-.972-1.719l.299-.211c.035.656.062,1.26.083,1.811s.035,1.033.045,1.445c.008.414.013.743.013.989v7.04h-1.986Z" fill="#fcfcfc"/><path d="M905.913,286.17v13.096h-1.978v-13.096h1.978ZM908.181,299.266h-3.234v-1.723h3.12c1.002,0,1.834-.19,2.496-.571s1.155-.933,1.481-1.657c.324-.723.487-1.595.487-2.614s-.161-1.887-.483-2.602-.806-1.261-1.45-1.64c-.645-.377-1.45-.566-2.417-.566h-3.305v-1.723h3.437c1.289,0,2.396.263,3.317.787.924.524,1.632,1.273,2.127,2.25.495.975.743,2.14.743,3.493s-.249,2.53-.747,3.511c-.498.982-1.219,1.736-2.162,2.264s-2.08.791-3.41.791Z" fill="#fcfcfc"/><path d="M920.964,299.266v-13.096h8.552v1.714h-6.574v3.885h6.1v1.696h-6.1v4.087h6.601v1.714h-8.578Z" fill="#fcfcfc"/></svg>